<?xml version="1.0" encoding="UTF-8" standalone="no"?>
<!DOCTYPE svg PUBLIC "-//W3C//DTD SVG 1.1//EN"
 "http://www.w3.org/Graphics/SVG/1.1/DTD/svg11.dtd">
<!-- Generated by graphviz version 5.0.0 (20220707.1540)
 -->
<!-- Title: dependencies Pages: 1 -->
<svg width="368pt" height="174pt"
 viewBox="0.00 0.00 368.00 173.80" xmlns="http://www.w3.org/2000/svg" xmlns:xlink="http://www.w3.org/1999/xlink">
<g id="graph0" class="graph" transform="scale(1 1) rotate(0) translate(4 169.8)">
<title>dependencies</title>
<polygon fill="white" stroke="transparent" points="-4,4 -4,-169.8 364,-169.8 364,4 -4,4"/>
<text text-anchor="middle" x="180" y="-8.2" font-family="sans-serif" font-size="14.00">dependencies</text>
<g id="clust1" class="cluster">
<title>cluster_AppModule</title>
<polygon fill="none" stroke="black" stroke-dasharray="1,5" points="8,-32.8 8,-157.8 352,-157.8 352,-32.8 8,-32.8"/>
</g>
<g id="clust3" class="cluster">
<title>cluster_AppModule_imports</title>
<polygon fill="none" stroke="black" points="16,-40.8 16,-92.8 344,-92.8 344,-40.8 16,-40.8"/>
</g>
<!-- AuthModule -->
<g id="node1" class="node">
<title>AuthModule</title>
<polygon fill="#8dd3c7" stroke="black" points="335.55,-84.8 332.55,-88.8 311.55,-88.8 308.55,-84.8 248.45,-84.8 248.45,-48.8 335.55,-48.8 335.55,-84.8"/>
<text text-anchor="middle" x="292" y="-62.6" font-family="Times,serif" font-size="14.00">AuthModule</text>
</g>
<!-- AppModule -->
<g id="node4" class="node">
<title>AppModule</title>
<polygon fill="#8dd3c7" stroke="black" points="223.66,-149.8 220.66,-153.8 199.66,-153.8 196.66,-149.8 140.34,-149.8 140.34,-113.8 223.66,-113.8 223.66,-149.8"/>
<text text-anchor="middle" x="182" y="-127.6" font-family="Times,serif" font-size="14.00">AppModule</text>
</g>
<!-- AuthModule&#45;&gt;AppModule -->
<g id="edge1" class="edge">
<title>AuthModule&#45;&gt;AppModule</title>
<path fill="none" stroke="black" d="M292,-84.91C292,-104.14 292,-131.8 292,-131.8 292,-131.8 233.9,-131.8 233.9,-131.8"/>
<polygon fill="black" stroke="black" points="233.9,-128.3 223.9,-131.8 233.9,-135.3 233.9,-128.3"/>
</g>
<!-- TeamsModule -->
<g id="node2" class="node">
<title>TeamsModule</title>
<polygon fill="#8dd3c7" stroke="black" points="230.37,-84.8 227.37,-88.8 206.37,-88.8 203.37,-84.8 133.63,-84.8 133.63,-48.8 230.37,-48.8 230.37,-84.8"/>
<text text-anchor="middle" x="182" y="-62.6" font-family="Times,serif" font-size="14.00">TeamsModule</text>
</g>
<!-- TeamsModule&#45;&gt;AppModule -->
<g id="edge2" class="edge">
<title>TeamsModule&#45;&gt;AppModule</title>
<path fill="none" stroke="black" d="M182,-84.91C182,-84.91 182,-103.79 182,-103.79"/>
<polygon fill="black" stroke="black" points="178.5,-103.79 182,-113.79 185.5,-103.79 178.5,-103.79"/>
</g>
<!-- UsersModule -->
<g id="node3" class="node">
<title>UsersModule</title>
<polygon fill="#8dd3c7" stroke="black" points="115.94,-84.8 112.94,-88.8 91.94,-88.8 88.94,-84.8 24.06,-84.8 24.06,-48.8 115.94,-48.8 115.94,-84.8"/>
<text text-anchor="middle" x="70" y="-62.6" font-family="Times,serif" font-size="14.00">UsersModule</text>
</g>
<!-- UsersModule&#45;&gt;AppModule -->
<g id="edge3" class="edge">
<title>UsersModule&#45;&gt;AppModule</title>
<path fill="none" stroke="black" d="M70,-84.91C70,-104.14 70,-131.8 70,-131.8 70,-131.8 130.3,-131.8 130.3,-131.8"/>
<polygon fill="black" stroke="black" points="130.3,-135.3 140.3,-131.8 130.3,-128.3 130.3,-135.3"/>
</g>
</g>
</svg>
