<?xml version="1.0" encoding="UTF-8" standalone="no"?>
<!DOCTYPE svg PUBLIC "-//W3C//DTD SVG 1.1//EN"
 "http://www.w3.org/Graphics/SVG/1.1/DTD/svg11.dtd">
<!-- Generated by graphviz version 5.0.0 (20220707.1540)
 -->
<!-- Title: dependencies Pages: 1 -->
<svg width="1019pt" height="250pt"
 viewBox="0.00 0.00 1019.00 249.80" xmlns="http://www.w3.org/2000/svg" xmlns:xlink="http://www.w3.org/1999/xlink">
<g id="graph0" class="graph" transform="scale(1 1) rotate(0) translate(4 245.8)">
<title>dependencies</title>
<polygon fill="white" stroke="transparent" points="-4,4 -4,-245.8 1015,-245.8 1015,4 -4,4"/>
<text text-anchor="middle" x="505.5" y="-8.2" font-family="sans-serif" font-size="14.00">dependencies</text>
<g id="clust1" class="cluster">
<title>cluster_AppModule</title>
<polygon fill="none" stroke="black" stroke-dasharray="1,5" points="589,-32.8 589,-233.8 721,-233.8 721,-32.8 589,-32.8"/>
</g>
<g id="clust3" class="cluster">
<title>cluster_AppModule_imports</title>
<polygon fill="none" stroke="black" points="597,-40.8 597,-168.8 705,-168.8 705,-40.8 597,-40.8"/>
</g>
<g id="clust7" class="cluster">
<title>cluster_AuthModule</title>
<polygon fill="none" stroke="black" stroke-dasharray="1,5" points="8,-32.8 8,-100.8 581,-100.8 581,-32.8 8,-32.8"/>
</g>
<g id="clust12" class="cluster">
<title>cluster_AuthModule_providers</title>
<polygon fill="none" stroke="black" points="16,-40.8 16,-92.8 573,-92.8 573,-40.8 16,-40.8"/>
</g>
<g id="clust13" class="cluster">
<title>cluster_UsersModule</title>
<polygon fill="none" stroke="black" stroke-dasharray="1,5" points="729,-108.8 729,-176.8 1003,-176.8 1003,-108.8 729,-108.8"/>
</g>
<g id="clust16" class="cluster">
<title>cluster_UsersModule_exports</title>
<polygon fill="none" stroke="black" points="885,-116.8 885,-168.8 995,-168.8 995,-116.8 885,-116.8"/>
</g>
<g id="clust18" class="cluster">
<title>cluster_UsersModule_providers</title>
<polygon fill="none" stroke="black" points="737,-116.8 737,-168.8 877,-168.8 877,-116.8 737,-116.8"/>
</g>
<!-- AuthModule -->
<g id="node1" class="node">
<title>AuthModule</title>
<polygon fill="#8dd3c7" stroke="black" points="692.55,-160.8 689.55,-164.8 668.55,-164.8 665.55,-160.8 605.45,-160.8 605.45,-124.8 692.55,-124.8 692.55,-160.8"/>
<text text-anchor="middle" x="649" y="-138.6" font-family="Times,serif" font-size="14.00">AuthModule</text>
</g>
<!-- AppModule -->
<g id="node3" class="node">
<title>AppModule</title>
<polygon fill="#8dd3c7" stroke="black" points="701.66,-225.8 698.66,-229.8 677.66,-229.8 674.66,-225.8 618.34,-225.8 618.34,-189.8 701.66,-189.8 701.66,-225.8"/>
<text text-anchor="middle" x="660" y="-203.6" font-family="Times,serif" font-size="14.00">AppModule</text>
</g>
<!-- AuthModule&#45;&gt;AppModule -->
<g id="edge1" class="edge">
<title>AuthModule&#45;&gt;AppModule</title>
<path fill="none" stroke="black" d="M655.47,-160.91C655.47,-160.91 655.47,-179.79 655.47,-179.79"/>
<polygon fill="black" stroke="black" points="651.97,-179.79 655.47,-189.79 658.97,-179.79 651.97,-179.79"/>
</g>
<!-- UsersModule -->
<g id="node2" class="node">
<title>UsersModule</title>
<polygon fill="#8dd3c7" stroke="black" points="696.94,-84.8 693.94,-88.8 672.94,-88.8 669.94,-84.8 605.06,-84.8 605.06,-48.8 696.94,-48.8 696.94,-84.8"/>
<text text-anchor="middle" x="651" y="-62.6" font-family="Times,serif" font-size="14.00">UsersModule</text>
</g>
<!-- UsersModule&#45;&gt;AuthModule -->
<g id="edge3" class="edge">
<title>UsersModule&#45;&gt;AuthModule</title>
<path fill="none" stroke="black" d="M649.03,-84.81C649.03,-84.81 649.03,-114.65 649.03,-114.65"/>
<polygon fill="black" stroke="black" points="645.53,-114.65 649.03,-124.65 652.53,-114.65 645.53,-114.65"/>
</g>
<!-- UsersModule&#45;&gt;AppModule -->
<g id="edge2" class="edge">
<title>UsersModule&#45;&gt;AppModule</title>
<path fill="none" stroke="black" d="M696.87,-75.8C711.24,-75.8 723.42,-75.8 723.42,-75.8 723.42,-75.8 723.42,-207.8 723.42,-207.8 723.42,-207.8 711.95,-207.8 711.95,-207.8"/>
<polygon fill="black" stroke="black" points="711.95,-204.3 701.95,-207.8 711.95,-211.3 711.95,-204.3"/>
</g>
<!-- UsersService  -->
<g id="node7" class="node">
<title>UsersService </title>
<polygon fill="#fb8072" stroke="black" points="986.86,-160.8 893.14,-160.8 893.14,-124.8 986.86,-124.8 986.86,-160.8"/>
<text text-anchor="middle" x="940" y="-138.6" font-family="Times,serif" font-size="14.00">UsersService </text>
</g>
<!-- UsersModule&#45;&gt;UsersService  -->
<g id="edge7" class="edge">
<title>UsersModule&#45;&gt;UsersService </title>
<path fill="none" stroke="black" stroke-dasharray="5,2" d="M696.79,-57.8C778.28,-57.8 940,-57.8 940,-57.8 940,-57.8 940,-114.77 940,-114.77"/>
<polygon fill="black" stroke="black" points="936.5,-114.77 940,-124.77 943.5,-114.77 936.5,-114.77"/>
</g>
<!-- AccessTokenStrategy -->
<g id="node4" class="node">
<title>AccessTokenStrategy</title>
<ellipse fill="#fdb462" stroke="black" cx="470" cy="-66.8" rx="95.48" ry="18"/>
<text text-anchor="middle" x="470" y="-62.6" font-family="Times,serif" font-size="14.00">AccessTokenStrategy</text>
</g>
<!-- AccessTokenStrategy&#45;&gt;AuthModule -->
<g id="edge4" class="edge">
<title>AccessTokenStrategy&#45;&gt;AuthModule</title>
<path fill="none" stroke="black" d="M470,-85.11C470,-104.95 470,-133.8 470,-133.8 470,-133.8 595.21,-133.8 595.21,-133.8"/>
<polygon fill="black" stroke="black" points="595.21,-137.3 605.21,-133.8 595.21,-130.3 595.21,-137.3"/>
</g>
<!-- AuthService -->
<g id="node5" class="node">
<title>AuthService</title>
<ellipse fill="#fdb462" stroke="black" cx="297" cy="-66.8" rx="59.11" ry="18"/>
<text text-anchor="middle" x="297" y="-62.6" font-family="Times,serif" font-size="14.00">AuthService</text>
</g>
<!-- AuthService&#45;&gt;AuthModule -->
<g id="edge5" class="edge">
<title>AuthService&#45;&gt;AuthModule</title>
<path fill="none" stroke="black" d="M297,-84.81C297,-107.29 297,-142.8 297,-142.8 297,-142.8 595.13,-142.8 595.13,-142.8"/>
<polygon fill="black" stroke="black" points="595.13,-146.3 605.13,-142.8 595.13,-139.3 595.13,-146.3"/>
</g>
<!-- RefreshTokenStrategy -->
<g id="node6" class="node">
<title>RefreshTokenStrategy</title>
<ellipse fill="#fdb462" stroke="black" cx="122" cy="-66.8" rx="97.84" ry="18"/>
<text text-anchor="middle" x="122" y="-62.6" font-family="Times,serif" font-size="14.00">RefreshTokenStrategy</text>
</g>
<!-- RefreshTokenStrategy&#45;&gt;AuthModule -->
<g id="edge6" class="edge">
<title>RefreshTokenStrategy&#45;&gt;AuthModule</title>
<path fill="none" stroke="black" d="M122,-84.83C122,-109.78 122,-151.8 122,-151.8 122,-151.8 595.43,-151.8 595.43,-151.8"/>
<polygon fill="black" stroke="black" points="595.43,-155.3 605.43,-151.8 595.42,-148.3 595.43,-155.3"/>
</g>
<!-- UsersService -->
<g id="node8" class="node">
<title>UsersService</title>
<ellipse fill="#fdb462" stroke="black" cx="807" cy="-142.8" rx="61.97" ry="18"/>
<text text-anchor="middle" x="807" y="-138.6" font-family="Times,serif" font-size="14.00">UsersService</text>
</g>
<!-- UsersService&#45;&gt;UsersModule -->
<g id="edge8" class="edge">
<title>UsersService&#45;&gt;UsersModule</title>
<path fill="none" stroke="black" d="M807,-124.79C807,-102.31 807,-66.8 807,-66.8 807,-66.8 706.96,-66.8 706.96,-66.8"/>
<polygon fill="black" stroke="black" points="706.96,-63.3 696.96,-66.8 706.96,-70.3 706.96,-63.3"/>
</g>
</g>
</svg>
