<svg id="visual" viewBox="0 0 900 600" width="900" height="600" xmlns="http://www.w3.org/2000/svg" xmlns:xlink="http://www.w3.org/1999/xlink" version="1.1">
  <path
    d="M0 431L21.5 436.5C43 442 86 453 128.8 448.8C171.7 444.7 214.3 425.3 257.2 414.8C300 404.3 343 402.7 385.8 411.7C428.7 420.7 471.3 440.3 514.2 443.5C557 446.7 600 433.3 642.8 432.7C685.7 432 728.3 444 771.2 447C814 450 857 444 878.5 441L900 438L900 601L878.5 601C857 601 814 601 771.2 601C728.3 601 685.7 601 642.8 601C600 601 557 601 514.2 601C471.3 601 428.7 601 385.8 601C343 601 300 601 257.2 601C214.3 601 171.7 601 128.8 601C86 601 43 601 21.5 601L0 601Z"
    fill="#fa7268"
    style="transition: all 0.4s cubic-bezier(0.16, 1, 0.3, 1) 0s"></path>
  <path
    d="M0 489L21.5 491.3C43 493.7 86 498.3 128.8 489.7C171.7 481 214.3 459 257.2 451.5C300 444 343 451 385.8 459C428.7 467 471.3 476 514.2 479C557 482 600 479 642.8 477.5C685.7 476 728.3 476 771.2 476.3C814 476.7 857 477.3 878.5 477.7L900 478L900 601L878.5 601C857 601 814 601 771.2 601C728.3 601 685.7 601 642.8 601C600 601 557 601 514.2 601C471.3 601 428.7 601 385.8 601C343 601 300 601 257.2 601C214.3 601 171.7 601 128.8 601C86 601 43 601 21.5 601L0 601Z"
    fill="#ef5f67"
    style="transition: all 0.4s cubic-bezier(0.16, 1, 0.3, 1) 0s"></path>
  <path
    d="M0 500L21.5 497C43 494 86 488 128.8 487.2C171.7 486.3 214.3 490.7 257.2 495.5C300 500.3 343 505.7 385.8 508.5C428.7 511.3 471.3 511.7 514.2 510.2C557 508.7 600 505.3 642.8 498.8C685.7 492.3 728.3 482.7 771.2 478C814 473.3 857 473.7 878.5 473.8L900 474L900 601L878.5 601C857 601 814 601 771.2 601C728.3 601 685.7 601 642.8 601C600 601 557 601 514.2 601C471.3 601 428.7 601 385.8 601C343 601 300 601 257.2 601C214.3 601 171.7 601 128.8 601C86 601 43 601 21.5 601L0 601Z"
    fill="#e34c67"
    style="transition: all 0.4s cubic-bezier(0.16, 1, 0.3, 1) 0s"></path>
  <path
    d="M0 521L21.5 526.2C43 531.3 86 541.7 128.8 547C171.7 552.3 214.3 552.7 257.2 547C300 541.3 343 529.7 385.8 522.5C428.7 515.3 471.3 512.7 514.2 512.8C557 513 600 516 642.8 515.2C685.7 514.3 728.3 509.7 771.2 510.2C814 510.7 857 516.3 878.5 519.2L900 522L900 601L878.5 601C857 601 814 601 771.2 601C728.3 601 685.7 601 642.8 601C600 601 557 601 514.2 601C471.3 601 428.7 601 385.8 601C343 601 300 601 257.2 601C214.3 601 171.7 601 128.8 601C86 601 43 601 21.5 601L0 601Z"
    fill="#d53867"
    style="transition: all 0.4s cubic-bezier(0.16, 1, 0.3, 1) 0s"></path>
  <path
    d="M0 570L21.5 569.3C43 568.7 86 567.3 128.8 562.5C171.7 557.7 214.3 549.3 257.2 547.5C300 545.7 343 550.3 385.8 556.2C428.7 562 471.3 569 514.2 572.2C557 575.3 600 574.7 642.8 569.8C685.7 565 728.3 556 771.2 554.8C814 553.7 857 560.3 878.5 563.7L900 567L900 601L878.5 601C857 601 814 601 771.2 601C728.3 601 685.7 601 642.8 601C600 601 557 601 514.2 601C471.3 601 428.7 601 385.8 601C343 601 300 601 257.2 601C214.3 601 171.7 601 128.8 601C86 601 43 601 21.5 601L0 601Z"
    fill="#c62368"
    style="transition: all 0.4s cubic-bezier(0.16, 1, 0.3, 1) 0s"></path>
</svg>
