<?xml version="1.0" encoding="UTF-8" standalone="no"?>
<!DOCTYPE svg PUBLIC "-//W3C//DTD SVG 1.1//EN"
 "http://www.w3.org/Graphics/SVG/1.1/DTD/svg11.dtd">
<!-- Generated by graphviz version 5.0.0 (20220707.1540)
 -->
<!-- Title: dependencies Pages: 1 -->
<svg width="519pt" height="174pt"
 viewBox="0.00 0.00 519.00 173.80" xmlns="http://www.w3.org/2000/svg" xmlns:xlink="http://www.w3.org/1999/xlink">
<g id="graph0" class="graph" transform="scale(1 1) rotate(0) translate(4 169.8)">
<title>dependencies</title>
<polygon fill="white" stroke="transparent" points="-4,4 -4,-169.8 515,-169.8 515,4 -4,4"/>
<text text-anchor="middle" x="255.5" y="-8.2" font-family="sans-serif" font-size="14.00">dependencies</text>
<g id="clust1" class="cluster">
<title>cluster_AppModule</title>
<polygon fill="none" stroke="black" stroke-dasharray="1,5" points="8,-32.8 8,-157.8 503,-157.8 503,-32.8 8,-32.8"/>
</g>
<g id="clust3" class="cluster">
<title>cluster_AppModule_imports</title>
<polygon fill="none" stroke="black" points="16,-40.8 16,-92.8 495,-92.8 495,-40.8 16,-40.8"/>
</g>
<!-- AuthModule -->
<g id="node1" class="node">
<title>AuthModule</title>
<polygon fill="#8dd3c7" stroke="black" points="486.55,-84.8 483.55,-88.8 462.55,-88.8 459.55,-84.8 399.45,-84.8 399.45,-48.8 486.55,-48.8 486.55,-84.8"/>
<text text-anchor="middle" x="443" y="-62.6" font-family="Times,serif" font-size="14.00">AuthModule</text>
</g>
<!-- AppModule -->
<g id="node5" class="node">
<title>AppModule</title>
<polygon fill="#8dd3c7" stroke="black" points="307.66,-149.8 304.66,-153.8 283.66,-153.8 280.66,-149.8 224.34,-149.8 224.34,-113.8 307.66,-113.8 307.66,-149.8"/>
<text text-anchor="middle" x="266" y="-127.6" font-family="Times,serif" font-size="14.00">AppModule</text>
</g>
<!-- AuthModule&#45;&gt;AppModule -->
<g id="edge1" class="edge">
<title>AuthModule&#45;&gt;AppModule</title>
<path fill="none" stroke="black" d="M443,-84.91C443,-104.14 443,-131.8 443,-131.8 443,-131.8 317.95,-131.8 317.95,-131.8"/>
<polygon fill="black" stroke="black" points="317.95,-128.3 307.95,-131.8 317.95,-135.3 317.95,-128.3"/>
</g>
<!-- TeamsModule -->
<g id="node2" class="node">
<title>TeamsModule</title>
<polygon fill="#8dd3c7" stroke="black" points="381.37,-84.8 378.37,-88.8 357.37,-88.8 354.37,-84.8 284.63,-84.8 284.63,-48.8 381.37,-48.8 381.37,-84.8"/>
<text text-anchor="middle" x="333" y="-62.6" font-family="Times,serif" font-size="14.00">TeamsModule</text>
</g>
<!-- TeamsModule&#45;&gt;AppModule -->
<g id="edge2" class="edge">
<title>TeamsModule&#45;&gt;AppModule</title>
<path fill="none" stroke="black" d="M296.2,-84.91C296.2,-84.91 296.2,-103.79 296.2,-103.79"/>
<polygon fill="black" stroke="black" points="292.7,-103.79 296.2,-113.79 299.7,-103.79 292.7,-103.79"/>
</g>
<!-- TournamentsModule -->
<g id="node3" class="node">
<title>TournamentsModule</title>
<polygon fill="#8dd3c7" stroke="black" points="266.92,-84.8 263.92,-88.8 242.92,-88.8 239.92,-84.8 133.08,-84.8 133.08,-48.8 266.92,-48.8 266.92,-84.8"/>
<text text-anchor="middle" x="200" y="-62.6" font-family="Times,serif" font-size="14.00">TournamentsModule</text>
</g>
<!-- TournamentsModule&#45;&gt;AppModule -->
<g id="edge3" class="edge">
<title>TournamentsModule&#45;&gt;AppModule</title>
<path fill="none" stroke="black" d="M245.44,-84.91C245.44,-84.91 245.44,-103.79 245.44,-103.79"/>
<polygon fill="black" stroke="black" points="241.94,-103.79 245.44,-113.79 248.94,-103.79 241.94,-103.79"/>
</g>
<!-- UsersModule -->
<g id="node4" class="node">
<title>UsersModule</title>
<polygon fill="#8dd3c7" stroke="black" points="115.94,-84.8 112.94,-88.8 91.94,-88.8 88.94,-84.8 24.06,-84.8 24.06,-48.8 115.94,-48.8 115.94,-84.8"/>
<text text-anchor="middle" x="70" y="-62.6" font-family="Times,serif" font-size="14.00">UsersModule</text>
</g>
<!-- UsersModule&#45;&gt;AppModule -->
<g id="edge4" class="edge">
<title>UsersModule&#45;&gt;AppModule</title>
<path fill="none" stroke="black" d="M70,-84.91C70,-104.14 70,-131.8 70,-131.8 70,-131.8 213.95,-131.8 213.95,-131.8"/>
<polygon fill="black" stroke="black" points="213.95,-135.3 223.95,-131.8 213.95,-128.3 213.95,-135.3"/>
</g>
</g>
</svg>
