<?xml version="1.0" encoding="UTF-8" standalone="no"?>
<!DOCTYPE svg PUBLIC "-//W3C//DTD SVG 1.1//EN"
 "http://www.w3.org/Graphics/SVG/1.1/DTD/svg11.dtd">
<!-- Generated by graphviz version 5.0.0 (20220707.1540)
 -->
<!-- Title: dependencies Pages: 1 -->
<svg width="468pt" height="247pt"
 viewBox="0.00 0.00 468.00 246.80" xmlns="http://www.w3.org/2000/svg" xmlns:xlink="http://www.w3.org/1999/xlink">
<g id="graph0" class="graph" transform="scale(1 1) rotate(0) translate(4 242.8)">
<title>dependencies</title>
<polygon fill="white" stroke="transparent" points="-4,4 -4,-242.8 464,-242.8 464,4 -4,4"/>
<text text-anchor="middle" x="230" y="-8.2" font-family="sans-serif" font-size="14.00">dependencies</text>
<g id="clust1" class="cluster">
<title>cluster_TournamentsModule</title>
<polygon fill="none" stroke="black" stroke-dasharray="1,5" points="8,-32.8 8,-230.8 452,-230.8 452,-32.8 8,-32.8"/>
</g>
<g id="clust6" class="cluster">
<title>cluster_TournamentsModule_providers</title>
<polygon fill="none" stroke="black" points="246,-40.8 246,-92.8 444,-92.8 444,-40.8 246,-40.8"/>
</g>
<g id="clust4" class="cluster">
<title>cluster_TournamentsModule_exports</title>
<polygon fill="none" stroke="black" points="106,-170.8 106,-222.8 258,-222.8 258,-170.8 106,-170.8"/>
</g>
<g id="clust3" class="cluster">
<title>cluster_TournamentsModule_imports</title>
<polygon fill="none" stroke="black" points="16,-40.8 16,-92.8 238,-92.8 238,-40.8 16,-40.8"/>
</g>
<!-- TeamsModule -->
<g id="node1" class="node">
<title>TeamsModule</title>
<polygon fill="#8dd3c7" stroke="black" points="230.37,-84.8 227.37,-88.8 206.37,-88.8 203.37,-84.8 133.63,-84.8 133.63,-48.8 230.37,-48.8 230.37,-84.8"/>
<text text-anchor="middle" x="182" y="-62.6" font-family="Times,serif" font-size="14.00">TeamsModule</text>
</g>
<!-- TournamentsModule -->
<g id="node3" class="node">
<title>TournamentsModule</title>
<polygon fill="#8dd3c7" stroke="black" points="248.92,-149.8 245.92,-153.8 224.92,-153.8 221.92,-149.8 115.08,-149.8 115.08,-113.8 248.92,-113.8 248.92,-149.8"/>
<text text-anchor="middle" x="182" y="-127.6" font-family="Times,serif" font-size="14.00">TournamentsModule</text>
</g>
<!-- TeamsModule&#45;&gt;TournamentsModule -->
<g id="edge1" class="edge">
<title>TeamsModule&#45;&gt;TournamentsModule</title>
<path fill="none" stroke="black" d="M182,-84.91C182,-84.91 182,-103.79 182,-103.79"/>
<polygon fill="black" stroke="black" points="178.5,-103.79 182,-113.79 185.5,-103.79 178.5,-103.79"/>
</g>
<!-- UsersModule -->
<g id="node2" class="node">
<title>UsersModule</title>
<polygon fill="#8dd3c7" stroke="black" points="115.94,-84.8 112.94,-88.8 91.94,-88.8 88.94,-84.8 24.06,-84.8 24.06,-48.8 115.94,-48.8 115.94,-84.8"/>
<text text-anchor="middle" x="70" y="-62.6" font-family="Times,serif" font-size="14.00">UsersModule</text>
</g>
<!-- UsersModule&#45;&gt;TournamentsModule -->
<g id="edge2" class="edge">
<title>UsersModule&#45;&gt;TournamentsModule</title>
<path fill="none" stroke="black" d="M116.1,-66.8C121.23,-66.8 124.64,-66.8 124.64,-66.8 124.64,-66.8 124.64,-103.69 124.64,-103.69"/>
<polygon fill="black" stroke="black" points="121.14,-103.69 124.64,-113.69 128.14,-103.69 121.14,-103.69"/>
</g>
<!-- TournamentsService  -->
<g id="node4" class="node">
<title>TournamentsService </title>
<polygon fill="#fb8072" stroke="black" points="249.85,-214.8 114.15,-214.8 114.15,-178.8 249.85,-178.8 249.85,-214.8"/>
<text text-anchor="middle" x="182" y="-192.6" font-family="Times,serif" font-size="14.00">TournamentsService </text>
</g>
<!-- TournamentsModule&#45;&gt;TournamentsService  -->
<g id="edge3" class="edge">
<title>TournamentsModule&#45;&gt;TournamentsService </title>
<path fill="none" stroke="black" stroke-dasharray="5,2" d="M182,-149.91C182,-149.91 182,-168.79 182,-168.79"/>
<polygon fill="black" stroke="black" points="178.5,-168.79 182,-178.79 185.5,-168.79 178.5,-168.79"/>
</g>
<!-- TournamentsService -->
<g id="node5" class="node">
<title>TournamentsService</title>
<ellipse fill="#fdb462" stroke="black" cx="345" cy="-66.8" rx="90.89" ry="18"/>
<text text-anchor="middle" x="345" y="-62.6" font-family="Times,serif" font-size="14.00">TournamentsService</text>
</g>
<!-- TournamentsService&#45;&gt;TournamentsModule -->
<g id="edge4" class="edge">
<title>TournamentsService&#45;&gt;TournamentsModule</title>
<path fill="none" stroke="black" d="M253.79,-66.8C245.17,-66.8 239.57,-66.8 239.57,-66.8 239.57,-66.8 239.57,-103.69 239.57,-103.69"/>
<polygon fill="black" stroke="black" points="236.07,-103.69 239.57,-113.69 243.07,-103.69 236.07,-103.69"/>
</g>
</g>
</svg>
