<?xml version="1.0" encoding="UTF-8" standalone="no"?>
<!DOCTYPE svg PUBLIC "-//W3C//DTD SVG 1.1//EN"
 "http://www.w3.org/Graphics/SVG/1.1/DTD/svg11.dtd">
<!-- Generated by graphviz version 5.0.0 (20220707.1540)
 -->
<!-- Title: dependencies Pages: 1 -->
<svg width="1484pt" height="269pt"
 viewBox="0.00 0.00 1484.00 268.80" xmlns="http://www.w3.org/2000/svg" xmlns:xlink="http://www.w3.org/1999/xlink">
<g id="graph0" class="graph" transform="scale(1 1) rotate(0) translate(4 264.8)">
<title>dependencies</title>
<polygon fill="white" stroke="transparent" points="-4,4 -4,-264.8 1480,-264.8 1480,4 -4,4"/>
<text text-anchor="middle" x="738" y="-8.2" font-family="sans-serif" font-size="14.00">dependencies</text>
<g id="clust1" class="cluster">
<title>cluster_AppModule</title>
<polygon fill="none" stroke="black" stroke-dasharray="1,5" points="589,-32.8 589,-244.8 892,-244.8 892,-32.8 589,-32.8"/>
</g>
<g id="clust3" class="cluster">
<title>cluster_AppModule_imports</title>
<polygon fill="none" stroke="black" points="597,-40.8 597,-168.8 852,-168.8 852,-40.8 597,-40.8"/>
</g>
<g id="clust7" class="cluster">
<title>cluster_AuthModule</title>
<polygon fill="none" stroke="black" stroke-dasharray="1,5" points="8,-32.8 8,-100.8 581,-100.8 581,-32.8 8,-32.8"/>
</g>
<g id="clust12" class="cluster">
<title>cluster_AuthModule_providers</title>
<polygon fill="none" stroke="black" points="16,-40.8 16,-92.8 573,-92.8 573,-40.8 16,-40.8"/>
</g>
<g id="clust13" class="cluster">
<title>cluster_TeamsModule</title>
<polygon fill="none" stroke="black" stroke-dasharray="1,5" points="900,-108.8 900,-176.8 1186,-176.8 1186,-108.8 900,-108.8"/>
</g>
<g id="clust16" class="cluster">
<title>cluster_TeamsModule_exports</title>
<polygon fill="none" stroke="black" points="1064,-116.8 1064,-168.8 1178,-168.8 1178,-116.8 1064,-116.8"/>
</g>
<g id="clust18" class="cluster">
<title>cluster_TeamsModule_providers</title>
<polygon fill="none" stroke="black" points="908,-116.8 908,-168.8 1056,-168.8 1056,-116.8 908,-116.8"/>
</g>
<g id="clust19" class="cluster">
<title>cluster_TournamentsModule</title>
<polygon fill="none" stroke="black" stroke-dasharray="1,5" points="900,-184.8 900,-252.8 1274,-252.8 1274,-184.8 900,-184.8"/>
</g>
<g id="clust22" class="cluster">
<title>cluster_TournamentsModule_exports</title>
<polygon fill="none" stroke="black" points="1114,-192.8 1114,-244.8 1266,-244.8 1266,-192.8 1114,-192.8"/>
</g>
<g id="clust24" class="cluster">
<title>cluster_TournamentsModule_providers</title>
<polygon fill="none" stroke="black" points="908,-192.8 908,-244.8 1106,-244.8 1106,-192.8 908,-192.8"/>
</g>
<g id="clust25" class="cluster">
<title>cluster_UsersModule</title>
<polygon fill="none" stroke="black" stroke-dasharray="1,5" points="1194,-108.8 1194,-176.8 1468,-176.8 1468,-108.8 1194,-108.8"/>
</g>
<g id="clust28" class="cluster">
<title>cluster_UsersModule_exports</title>
<polygon fill="none" stroke="black" points="1350,-116.8 1350,-168.8 1460,-168.8 1460,-116.8 1350,-116.8"/>
</g>
<g id="clust30" class="cluster">
<title>cluster_UsersModule_providers</title>
<polygon fill="none" stroke="black" points="1202,-116.8 1202,-168.8 1342,-168.8 1342,-116.8 1202,-116.8"/>
</g>
<!-- AuthModule -->
<g id="node1" class="node">
<title>AuthModule</title>
<polygon fill="#8dd3c7" stroke="black" points="692.55,-160.8 689.55,-164.8 668.55,-164.8 665.55,-160.8 605.45,-160.8 605.45,-124.8 692.55,-124.8 692.55,-160.8"/>
<text text-anchor="middle" x="649" y="-138.6" font-family="Times,serif" font-size="14.00">AuthModule</text>
</g>
<!-- AppModule -->
<g id="node5" class="node">
<title>AppModule</title>
<polygon fill="#8dd3c7" stroke="black" points="850.66,-236.8 847.66,-240.8 826.66,-240.8 823.66,-236.8 767.34,-236.8 767.34,-200.8 850.66,-200.8 850.66,-236.8"/>
<text text-anchor="middle" x="809" y="-214.6" font-family="Times,serif" font-size="14.00">AppModule</text>
</g>
<!-- AuthModule&#45;&gt;AppModule -->
<g id="edge1" class="edge">
<title>AuthModule&#45;&gt;AppModule</title>
<path fill="none" stroke="black" d="M649,-161C649,-185.16 649,-224.8 649,-224.8 649,-224.8 756.96,-224.8 756.96,-224.8"/>
<polygon fill="black" stroke="black" points="756.96,-228.3 766.96,-224.8 756.96,-221.3 756.96,-228.3"/>
</g>
<!-- TeamsModule -->
<g id="node2" class="node">
<title>TeamsModule</title>
<polygon fill="#8dd3c7" stroke="black" points="844.37,-84.8 841.37,-88.8 820.37,-88.8 817.37,-84.8 747.63,-84.8 747.63,-48.8 844.37,-48.8 844.37,-84.8"/>
<text text-anchor="middle" x="796" y="-62.6" font-family="Times,serif" font-size="14.00">TeamsModule</text>
</g>
<!-- TournamentsModule -->
<g id="node3" class="node">
<title>TournamentsModule</title>
<polygon fill="#8dd3c7" stroke="black" points="843.92,-160.8 840.92,-164.8 819.92,-164.8 816.92,-160.8 710.08,-160.8 710.08,-124.8 843.92,-124.8 843.92,-160.8"/>
<text text-anchor="middle" x="777" y="-138.6" font-family="Times,serif" font-size="14.00">TournamentsModule</text>
</g>
<!-- TeamsModule&#45;&gt;TournamentsModule -->
<g id="edge11" class="edge">
<title>TeamsModule&#45;&gt;TournamentsModule</title>
<path fill="none" stroke="black" d="M795.64,-84.81C795.64,-84.81 795.64,-114.65 795.64,-114.65"/>
<polygon fill="black" stroke="black" points="792.14,-114.65 795.64,-124.65 799.14,-114.65 792.14,-114.65"/>
</g>
<!-- TeamsModule&#45;&gt;AppModule -->
<g id="edge2" class="edge">
<title>TeamsModule&#45;&gt;AppModule</title>
<path fill="none" stroke="black" d="M844.58,-75.8C869.35,-75.8 894.31,-75.8 894.31,-75.8 894.31,-75.8 894.31,-224.8 894.31,-224.8 894.31,-224.8 861.16,-224.8 861.16,-224.8"/>
<polygon fill="black" stroke="black" points="861.16,-221.3 851.16,-224.8 861.16,-228.3 861.16,-221.3"/>
</g>
<!-- TeamsService  -->
<g id="node9" class="node">
<title>TeamsService </title>
<polygon fill="#fb8072" stroke="black" points="1170.3,-160.8 1071.7,-160.8 1071.7,-124.8 1170.3,-124.8 1170.3,-160.8"/>
<text text-anchor="middle" x="1121" y="-138.6" font-family="Times,serif" font-size="14.00">TeamsService </text>
</g>
<!-- TeamsModule&#45;&gt;TeamsService  -->
<g id="edge9" class="edge">
<title>TeamsModule&#45;&gt;TeamsService </title>
<path fill="none" stroke="black" stroke-dasharray="5,2" d="M844.66,-57.8C935.32,-57.8 1121,-57.8 1121,-57.8 1121,-57.8 1121,-114.77 1121,-114.77"/>
<polygon fill="black" stroke="black" points="1117.5,-114.77 1121,-124.77 1124.5,-114.77 1117.5,-114.77"/>
</g>
<!-- TournamentsModule&#45;&gt;AppModule -->
<g id="edge3" class="edge">
<title>TournamentsModule&#45;&gt;AppModule</title>
<path fill="none" stroke="black" d="M792.68,-160.81C792.68,-160.81 792.68,-190.65 792.68,-190.65"/>
<polygon fill="black" stroke="black" points="789.18,-190.65 792.68,-200.65 796.18,-190.65 789.18,-190.65"/>
</g>
<!-- TournamentsService  -->
<g id="node11" class="node">
<title>TournamentsService </title>
<polygon fill="#fb8072" stroke="black" points="1257.85,-236.8 1122.15,-236.8 1122.15,-200.8 1257.85,-200.8 1257.85,-236.8"/>
<text text-anchor="middle" x="1190" y="-214.6" font-family="Times,serif" font-size="14.00">TournamentsService </text>
</g>
<!-- TournamentsModule&#45;&gt;TournamentsService  -->
<g id="edge13" class="edge">
<title>TournamentsModule&#45;&gt;TournamentsService </title>
<path fill="none" stroke="black" stroke-dasharray="5,2" d="M818.2,-160.91C818.2,-170.7 818.2,-180.8 818.2,-180.8 818.2,-180.8 1146.36,-180.8 1146.36,-180.8 1146.36,-180.8 1146.36,-190.69 1146.36,-190.69"/>
<polygon fill="black" stroke="black" points="1142.86,-190.69 1146.36,-200.69 1149.86,-190.69 1142.86,-190.69"/>
</g>
<!-- UsersModule -->
<g id="node4" class="node">
<title>UsersModule</title>
<polygon fill="#8dd3c7" stroke="black" points="729.94,-84.8 726.94,-88.8 705.94,-88.8 702.94,-84.8 638.06,-84.8 638.06,-48.8 729.94,-48.8 729.94,-84.8"/>
<text text-anchor="middle" x="684" y="-62.6" font-family="Times,serif" font-size="14.00">UsersModule</text>
</g>
<!-- UsersModule&#45;&gt;AuthModule -->
<g id="edge5" class="edge">
<title>UsersModule&#45;&gt;AuthModule</title>
<path fill="none" stroke="black" d="M665.53,-84.81C665.53,-84.81 665.53,-114.65 665.53,-114.65"/>
<polygon fill="black" stroke="black" points="662.03,-114.65 665.53,-124.65 669.03,-114.65 662.03,-114.65"/>
</g>
<!-- UsersModule&#45;&gt;TournamentsModule -->
<g id="edge12" class="edge">
<title>UsersModule&#45;&gt;TournamentsModule</title>
<path fill="none" stroke="black" d="M715.15,-84.81C715.15,-84.81 715.15,-114.65 715.15,-114.65"/>
<polygon fill="black" stroke="black" points="711.65,-114.65 715.15,-124.65 718.65,-114.65 711.65,-114.65"/>
</g>
<!-- UsersModule&#45;&gt;AppModule -->
<g id="edge4" class="edge">
<title>UsersModule&#45;&gt;AppModule</title>
<path fill="none" stroke="black" d="M701.53,-85C701.53,-124.13 701.53,-212.8 701.53,-212.8 701.53,-212.8 757.14,-212.8 757.14,-212.8"/>
<polygon fill="black" stroke="black" points="757.14,-216.3 767.14,-212.8 757.14,-209.3 757.14,-216.3"/>
</g>
<!-- UsersService  -->
<g id="node13" class="node">
<title>UsersService </title>
<polygon fill="#fb8072" stroke="black" points="1451.86,-160.8 1358.14,-160.8 1358.14,-124.8 1451.86,-124.8 1451.86,-160.8"/>
<text text-anchor="middle" x="1405" y="-138.6" font-family="Times,serif" font-size="14.00">UsersService </text>
</g>
<!-- UsersModule&#45;&gt;UsersService  -->
<g id="edge15" class="edge">
<title>UsersModule&#45;&gt;UsersService </title>
<path fill="none" stroke="black" stroke-dasharray="5,2" d="M720,-85.04C720,-92.23 720,-98.8 720,-98.8 720,-98.8 1405,-98.8 1405,-98.8 1405,-98.8 1405,-114.65 1405,-114.65"/>
<polygon fill="black" stroke="black" points="1401.5,-114.65 1405,-124.65 1408.5,-114.65 1401.5,-114.65"/>
</g>
<!-- AccessTokenStrategy -->
<g id="node6" class="node">
<title>AccessTokenStrategy</title>
<ellipse fill="#fdb462" stroke="black" cx="256" cy="-66.8" rx="95.48" ry="18"/>
<text text-anchor="middle" x="256" y="-62.6" font-family="Times,serif" font-size="14.00">AccessTokenStrategy</text>
</g>
<!-- AccessTokenStrategy&#45;&gt;AuthModule -->
<g id="edge6" class="edge">
<title>AccessTokenStrategy&#45;&gt;AuthModule</title>
<path fill="none" stroke="black" d="M256,-84.83C256,-105.57 256,-136.8 256,-136.8 256,-136.8 595.44,-136.8 595.44,-136.8"/>
<polygon fill="black" stroke="black" points="595.44,-140.3 605.44,-136.8 595.44,-133.3 595.44,-140.3"/>
</g>
<!-- AuthService -->
<g id="node7" class="node">
<title>AuthService</title>
<ellipse fill="#fdb462" stroke="black" cx="83" cy="-66.8" rx="59.11" ry="18"/>
<text text-anchor="middle" x="83" y="-62.6" font-family="Times,serif" font-size="14.00">AuthService</text>
</g>
<!-- AuthService&#45;&gt;AuthModule -->
<g id="edge7" class="edge">
<title>AuthService&#45;&gt;AuthModule</title>
<path fill="none" stroke="black" d="M83,-85C83,-109.16 83,-148.8 83,-148.8 83,-148.8 595.06,-148.8 595.06,-148.8"/>
<polygon fill="black" stroke="black" points="595.06,-152.3 605.06,-148.8 595.06,-145.3 595.06,-152.3"/>
</g>
<!-- RefreshTokenStrategy -->
<g id="node8" class="node">
<title>RefreshTokenStrategy</title>
<ellipse fill="#fdb462" stroke="black" cx="467" cy="-66.8" rx="97.84" ry="18"/>
<text text-anchor="middle" x="467" y="-62.6" font-family="Times,serif" font-size="14.00">RefreshTokenStrategy</text>
</g>
<!-- RefreshTokenStrategy&#45;&gt;AuthModule -->
<g id="edge8" class="edge">
<title>RefreshTokenStrategy&#45;&gt;AuthModule</title>
<path fill="none" stroke="black" d="M565.01,-66.8C595.72,-66.8 621.75,-66.8 621.75,-66.8 621.75,-66.8 621.75,-114.79 621.75,-114.79"/>
<polygon fill="black" stroke="black" points="618.25,-114.79 621.75,-124.79 625.25,-114.79 618.25,-114.79"/>
</g>
<!-- TeamsService -->
<g id="node10" class="node">
<title>TeamsService</title>
<ellipse fill="#fdb462" stroke="black" cx="982" cy="-142.8" rx="65.97" ry="18"/>
<text text-anchor="middle" x="982" y="-138.6" font-family="Times,serif" font-size="14.00">TeamsService</text>
</g>
<!-- TeamsService&#45;&gt;TeamsModule -->
<g id="edge10" class="edge">
<title>TeamsService&#45;&gt;TeamsModule</title>
<path fill="none" stroke="black" d="M982,-124.79C982,-102.31 982,-66.8 982,-66.8 982,-66.8 854.38,-66.8 854.38,-66.8"/>
<polygon fill="black" stroke="black" points="854.38,-63.3 844.38,-66.8 854.38,-70.3 854.38,-63.3"/>
</g>
<!-- TournamentsService -->
<g id="node12" class="node">
<title>TournamentsService</title>
<ellipse fill="#fdb462" stroke="black" cx="1007" cy="-218.8" rx="90.89" ry="18"/>
<text text-anchor="middle" x="1007" y="-214.6" font-family="Times,serif" font-size="14.00">TournamentsService</text>
</g>
<!-- TournamentsService&#45;&gt;TournamentsModule -->
<g id="edge14" class="edge">
<title>TournamentsService&#45;&gt;TournamentsModule</title>
<path fill="none" stroke="black" d="M921.1,-212.8C894.76,-212.8 872.57,-212.8 872.57,-212.8 872.57,-212.8 872.57,-142.8 872.57,-142.8 872.57,-142.8 853.9,-142.8 853.9,-142.8"/>
<polygon fill="black" stroke="black" points="853.9,-139.3 843.9,-142.8 853.9,-146.3 853.9,-139.3"/>
</g>
<!-- UsersService -->
<g id="node14" class="node">
<title>UsersService</title>
<ellipse fill="#fdb462" stroke="black" cx="1272" cy="-142.8" rx="61.97" ry="18"/>
<text text-anchor="middle" x="1272" y="-138.6" font-family="Times,serif" font-size="14.00">UsersService</text>
</g>
<!-- UsersService&#45;&gt;UsersModule -->
<g id="edge16" class="edge">
<title>UsersService&#45;&gt;UsersModule</title>
<path fill="none" stroke="black" d="M1272,-124.77C1272,-117.95 1272,-111.8 1272,-111.8 1272,-111.8 724.86,-111.8 724.86,-111.8 724.86,-111.8 724.86,-94.84 724.86,-94.84"/>
<polygon fill="black" stroke="black" points="728.36,-94.84 724.86,-84.84 721.36,-94.84 728.36,-94.84"/>
</g>
</g>
</svg>
